<svg width="90" height="90" viewBox="0 0 90 90" fill="none" xmlns="http://www.w3.org/2000/svg">
<g clip-path="url(#clip0_444_899)">
<path d="M45.3854 1.40155C45.8569 1.61333 46.2785 1.8312 46.7216 2.09154C46.856 2.16832 46.9905 2.24511 47.129 2.32422C48.6028 3.17402 50.0526 4.0653 51.504 4.95273C52.9886 5.85981 54.4838 6.74659 55.9871 7.62235C57.6623 8.59868 59.3265 9.59077 60.9812 10.6013C62.6472 11.6186 64.3224 12.6182 66.0082 13.6022C67.7464 14.6168 69.4776 15.6419 71.2019 16.68C72.7162 17.5913 74.2354 18.4944 75.7556 19.3959C77.3898 20.365 79.0231 21.3355 80.6503 22.3162C81.5664 22.8675 82.486 23.4124 83.407 23.9554C83.7864 24.1793 84.1656 24.4033 84.5449 24.6273C84.7928 24.7735 85.0408 24.9194 85.289 25.0651C88.8197 27.1372 88.8197 27.1372 89.7196 28.0371C89.8309 29.007 89.8309 29.007 89.7196 29.4389C89.1548 30.0617 88.582 30.516 87.8632 30.9476C87.6705 31.064 87.4778 31.1805 87.2793 31.3004C87.0706 31.4247 86.8618 31.549 86.653 31.6732C86.4367 31.8029 86.2205 31.9328 86.0044 32.0627C85.3165 32.4753 84.6267 32.8848 83.9368 33.2941C83.6991 33.4354 83.4614 33.5767 83.2237 33.718C82.5313 34.1293 81.8378 34.5389 81.1441 34.9478C81.0349 35.0124 80.9257 35.077 80.8132 35.1435C80.5024 35.3269 80.1912 35.5096 79.8798 35.6919C79.7027 35.7959 79.5256 35.8999 79.3432 36.0071C78.8962 36.2506 78.4555 36.4465 77.9789 36.6235C78.4324 37.1359 78.9547 37.4372 79.5444 37.7783C79.647 37.838 79.7496 37.8977 79.8553 37.9592C80.0753 38.0871 80.2955 38.2147 80.516 38.3419C81.0948 38.6761 81.672 39.0129 82.2495 39.3492C82.3645 39.4161 82.4795 39.4829 82.598 39.5518C83.9813 40.3566 85.3537 41.1795 86.7226 42.0085C87.0805 42.2246 87.4395 42.4388 87.7988 42.6527C88.0083 42.7785 88.2178 42.9045 88.4272 43.0305C88.6029 43.1355 88.7787 43.2406 88.9598 43.3488C89.3691 43.6329 89.3691 43.6329 89.7196 44.1586C89.8302 45.1381 89.8302 45.1381 89.7196 45.5604C89.1433 46.2 88.5638 46.6431 87.8187 47.0691C87.6712 47.1544 87.6712 47.1544 87.5207 47.2414C87.3092 47.3635 87.0974 47.485 86.8853 47.606C86.3168 47.9301 85.7509 48.2585 85.1847 48.5866C85.0679 48.6542 84.9512 48.7217 84.8309 48.7912C84.0031 49.2713 83.1826 49.7623 82.3659 50.2609C82.2542 50.3292 82.1424 50.3974 82.0273 50.4677C81.5939 50.7328 81.1607 50.9983 80.7283 51.265C80.4309 51.4483 80.1331 51.6309 79.8353 51.8134C79.6667 51.9174 79.498 52.0214 79.3243 52.1286C78.8845 52.3779 78.4526 52.5704 77.9789 52.745C77.9789 52.8607 77.9789 52.9763 77.9789 53.0955C78.1026 53.1415 78.2263 53.1874 78.3537 53.2348C78.888 53.4598 79.3678 53.7269 79.8675 54.0209C79.9648 54.078 80.0622 54.1351 80.1626 54.194C80.4828 54.382 80.8025 54.5711 81.1222 54.7602C81.346 54.8923 81.5698 55.0243 81.7936 55.1563C82.2645 55.4344 82.7351 55.713 83.2055 55.9919C83.8206 56.3565 84.4369 56.7192 85.0533 57.0815C85.5364 57.3658 86.0187 57.6515 86.5008 57.9376C86.7327 58.0749 86.9648 58.2117 87.1973 58.348C87.5227 58.5391 87.8471 58.732 88.1712 58.9254C88.3563 59.0349 88.5415 59.1445 88.7322 59.2573C89.182 59.5709 89.4445 59.8094 89.7196 60.2801C89.8111 60.8477 89.8592 61.1462 89.7196 61.6819C88.7685 62.6565 87.6029 63.2933 86.4296 63.9652C85.9706 64.228 85.5133 64.4936 85.0558 64.759C84.8261 64.8922 84.5963 65.0253 84.3664 65.1582C83.4693 65.6771 82.5787 66.2059 81.6917 66.7418C79.9148 67.8131 78.1302 68.8712 76.3455 69.9291C75.2235 70.5943 74.1027 71.2613 72.9847 71.9331C71.7514 72.6743 70.5144 73.4093 69.2766 74.143C67.619 75.1257 65.9618 76.1089 64.3107 77.1025C62.5442 78.1655 60.7707 79.2167 58.9972 80.268C57.8762 80.9327 56.7563 81.5991 55.6393 82.2705C54.7407 82.8107 53.8401 83.3474 52.9376 83.8812C52.8226 83.9492 52.7077 84.0172 52.5893 84.0873C52.1127 84.3693 51.6361 84.6513 51.1592 84.9328C49.4559 85.9353 49.4559 85.9353 47.7839 86.9888C47.6574 87.0713 47.5309 87.1537 47.4006 87.2387C47.1858 87.3807 46.9726 87.5252 46.7617 87.6729C45.9897 88.1848 45.2542 88.4217 44.334 88.3174C43.6413 88.0474 43.035 87.6601 42.4065 87.266C42.2042 87.1462 42.0015 87.0272 41.7985 86.9088C41.115 86.5102 40.4355 86.1053 39.7561 85.6999C39.5061 85.5511 39.2562 85.4023 39.0062 85.2536C37.3627 84.2751 35.7222 83.2917 34.0828 82.3063C32.6217 81.4286 31.1569 80.557 29.6911 79.6872C29.5739 79.6177 29.4568 79.5482 29.3361 79.4766C28.6164 79.0495 27.8966 78.6226 27.1767 78.1957C26.0762 77.5431 24.9758 76.8903 23.8755 76.2373C23.7566 76.1667 23.6376 76.0961 23.5151 76.0234C22.0261 75.1395 20.539 74.2526 19.0553 73.3598C17.4201 72.377 15.7785 71.4051 14.1374 70.4323C13.0157 69.7672 11.8951 69.1003 10.7775 68.4284C9.88587 67.8925 8.9921 67.3603 8.09627 66.8315C3.76532 64.2739 3.76532 64.2739 1.87274 63.0838C1.74008 63.0008 1.60743 62.9179 1.47076 62.8324C1.3511 62.7563 1.23143 62.6803 1.10814 62.6019C0.956578 62.5057 0.956578 62.5057 0.801953 62.4075C0.493563 62.1844 0.242956 61.976 -7.44277e-05 61.6819C-0.123673 60.724 -0.123673 60.724 -7.44277e-05 60.2801C0.565268 59.6578 1.13742 59.2031 1.85631 58.7714C2.04897 58.655 2.24164 58.5385 2.44015 58.4186C2.6489 58.2943 2.85769 58.17 3.06651 58.0458C3.28276 57.9161 3.49897 57.7862 3.71513 57.6563C4.40302 57.2437 5.09275 56.8342 5.78264 56.4249C6.02036 56.2836 6.25809 56.1423 6.49581 56.001C7.18821 55.5896 7.88164 55.1801 8.57542 54.7712C8.68461 54.7066 8.7938 54.642 8.9063 54.5755C9.21705 54.3921 9.52829 54.2094 9.83971 54.0271C10.0168 53.9231 10.1939 53.8191 10.3763 53.7119C10.8233 53.4684 11.264 53.2725 11.7406 53.0955C11.7406 52.9798 11.7406 52.8642 11.7406 52.745C11.5615 52.6802 11.5615 52.6802 11.3787 52.614C10.7691 52.3539 10.2113 52.0282 9.64462 51.6875C9.52763 51.6178 9.41064 51.5481 9.29011 51.4763C8.91645 51.2536 8.54332 51.0301 8.17019 50.8065C7.92632 50.661 7.6824 50.5155 7.43846 50.3701C6.03272 49.5317 4.6294 48.6892 3.22613 47.8466C2.41477 47.3598 1.60269 46.8742 0.79053 46.3887C0.350393 46.0861 0.350393 46.0861 -7.44277e-05 45.5604C-0.110673 44.5808 -0.110673 44.5808 -7.44277e-05 44.1586C0.576223 43.519 1.15573 43.0759 1.9008 42.6499C1.99914 42.5931 2.09748 42.5362 2.1988 42.4776C2.41028 42.3555 2.62211 42.234 2.83426 42.113C3.4025 41.7889 3.96816 41.4604 4.5341 41.1324C4.70918 41.0311 4.70918 41.0311 4.8878 40.9278C6.37817 40.0635 7.84653 39.163 9.31576 38.2634C9.50899 38.1453 9.70222 38.0273 9.90131 37.9056C10.1556 37.7496 10.1556 37.7496 10.4151 37.5904C10.8644 37.3245 10.8644 37.3244 11.2641 37.1348C11.5975 36.9941 11.5975 36.9941 11.7406 36.6235C11.6127 36.5751 11.4848 36.5266 11.353 36.4766C10.8943 36.2855 10.4842 36.0705 10.056 35.8192C9.89773 35.7267 9.73946 35.6342 9.57638 35.5388C9.31945 35.3872 9.31945 35.3872 9.05732 35.2326C8.87755 35.127 8.69779 35.0215 8.51258 34.9127C8.11458 34.6786 7.71676 34.4443 7.31918 34.2095C6.8555 33.9357 6.39148 33.6625 5.92724 33.3897C5.29207 33.0163 4.65738 32.6422 4.02301 32.2675C3.77354 32.1202 3.52395 31.9732 3.27424 31.8264C2.92098 31.6185 2.56827 31.4098 2.21567 31.2009C2.11088 31.1394 2.00608 31.078 1.89811 31.0147C0.317593 30.0743 0.317593 30.0743 -7.44277e-05 29.4389C-0.0718279 28.9008 -0.11291 28.5549 -7.44277e-05 28.0371C0.936424 27.0748 2.08265 26.4459 3.23985 25.7839C3.69506 25.5234 4.14861 25.26 4.60227 24.9968C4.83506 24.8618 5.06793 24.7269 5.30087 24.5921C6.36262 23.9773 7.41533 23.348 8.4659 22.7143C10.0072 21.786 11.5526 20.865 13.1008 19.9482C15.02 18.8115 16.9332 17.666 18.8375 16.5045C20.4705 15.5088 22.113 14.5316 23.7675 13.572C25.2692 12.7003 26.7637 11.8168 28.2564 10.9299C28.4385 10.8216 28.4385 10.8216 28.6244 10.7112C30.1399 9.81053 31.6533 8.90671 33.1639 7.99784C34.7991 7.01499 36.4409 6.04302 38.0821 5.07017C40.053 3.90158 42.0204 2.72722 43.9788 1.53777C44.4898 1.34181 44.8392 1.33946 45.3854 1.40155ZM43.8891 5.18893C43.7214 5.29039 43.5538 5.39186 43.381 5.4964C43.1967 5.60885 43.0125 5.7213 42.8227 5.83715C42.4237 6.0787 42.0246 6.3201 41.6254 6.56136C41.5199 6.62527 41.4143 6.68918 41.3056 6.75503C40.1437 7.45782 38.9758 8.15022 37.8076 8.84233C36.051 9.8831 34.2961 10.9266 32.5466 11.9794C31.04 12.8848 29.5276 13.7804 28.0157 14.6771C26.4869 15.5841 24.9598 16.4938 23.4366 17.4103C21.8013 18.3932 20.1595 19.3652 18.5182 20.3381C17.3961 21.0034 16.2751 21.6706 15.157 22.3427C14.2697 22.876 13.3805 23.4059 12.4894 23.9328C9.82736 25.5071 7.1752 27.0929 4.556 28.738C5.16694 29.2479 5.78692 29.6683 6.47536 30.0666C6.57491 30.1246 6.67446 30.1825 6.77703 30.2422C6.99086 30.3665 7.20486 30.4906 7.41902 30.6143C7.99499 30.9472 8.56954 31.2826 9.14425 31.6177C9.2608 31.6856 9.37735 31.7535 9.49744 31.8234C10.5608 32.4435 11.6172 33.0749 12.6715 33.7103C14.3183 34.7016 15.9687 35.6866 17.6219 36.6673C17.7386 36.7366 17.8554 36.8059 17.9758 36.8773C18.5733 37.2318 19.1709 37.5863 19.7685 37.9407C20.89 38.6058 22.0114 39.2712 23.1327 39.9368C23.4784 40.1419 23.8242 40.347 24.1699 40.5521C25.2535 41.195 26.3357 41.8401 27.4158 42.4891C28.6519 43.2318 29.8916 43.9684 31.1321 44.7037C32.9207 45.7641 34.7081 46.8263 36.4895 47.8989C37.4151 48.4555 38.3434 49.0075 39.2728 49.558C39.3988 49.6326 39.5247 49.7072 39.6545 49.7841C40.2861 50.1583 40.918 50.5323 41.5502 50.9057C41.784 51.0442 42.0179 51.1827 42.2518 51.3212C42.3579 51.3838 42.464 51.4463 42.5733 51.5107C43.0702 51.8054 43.5401 52.1053 44.0042 52.4507C44.475 52.7836 44.475 52.7836 44.9479 52.7372C45.4774 52.5346 45.9408 52.2832 46.4286 51.9934C46.578 51.9054 46.578 51.9054 46.7303 51.8156C47.0567 51.6228 47.382 51.4283 47.7073 51.2336C47.937 51.0974 48.1668 50.9613 48.3967 50.8252C49.088 50.4156 49.7777 50.0035 50.4672 49.5908C50.6574 49.4771 50.8477 49.3633 51.0437 49.2462C51.7479 48.8247 52.4518 48.4026 53.1549 47.9793C54.5196 47.1577 55.889 46.344 57.2596 45.5323C59.1789 44.3956 61.0921 43.2501 62.9964 42.0886C64.6287 41.0933 66.2706 40.1164 67.9245 39.1572C69.4453 38.2746 70.9584 37.3793 72.47 36.4811C72.5859 36.4123 72.7018 36.3435 72.8212 36.2726C74.0424 35.5472 75.2623 34.8196 76.4798 34.0881C77.8709 33.2524 79.2663 32.4241 80.6622 31.5965C82.1647 30.7055 83.667 29.8143 85.1635 28.9132C84.6901 28.3702 84.0979 28.0403 83.483 27.6818C83.3689 27.6144 83.2547 27.547 83.1371 27.4775C82.7653 27.2581 82.3927 27.0398 82.0202 26.8214C81.7615 26.6689 81.5029 26.5164 81.2443 26.3638C80.7342 26.0627 80.2239 25.7619 79.7135 25.4614C78.8989 24.9811 78.0878 24.495 77.278 24.0067C75.5115 22.9435 73.738 21.8925 71.9645 20.8412C70.7333 20.1112 69.504 19.3782 68.2771 18.6409C67.1525 17.9656 66.0243 17.2963 64.8958 16.6274C63.2382 15.6447 61.581 14.6615 59.9298 13.6679C58.4148 12.7563 56.8945 11.8538 55.3738 10.9518C52.2014 9.06958 52.2014 9.06958 50.7191 8.1809C50.5863 8.10134 50.4535 8.02177 50.3167 7.93979C49.5316 7.46806 48.7498 6.99112 47.9695 6.51139C47.7838 6.3975 47.5981 6.28361 47.4068 6.16627C47.0442 5.94357 46.6819 5.72019 46.3201 5.49606C46.1576 5.39628 45.9951 5.29651 45.8276 5.19372C45.6829 5.10432 45.5382 5.01493 45.3891 4.92283C44.7476 4.57534 44.4754 4.83184 43.8891 5.18893ZM13.7106 39.2856C13.6103 39.3446 13.51 39.4037 13.4067 39.4645C13.077 39.6591 12.7483 39.8553 12.4196 40.0515C12.192 40.1864 11.9643 40.3211 11.7366 40.4558C11.036 40.8706 10.3368 41.2878 9.63778 41.7053C9.41783 41.8364 9.19788 41.9676 8.97791 42.0987C6.83243 43.3563 6.83243 43.3563 4.73123 44.6843C4.94309 45.3198 5.07888 45.3604 5.64642 45.6809C5.88701 45.8187 5.88701 45.8187 6.13246 45.9594C6.30977 46.059 6.48708 46.1587 6.66976 46.2614C7.05323 46.4808 7.43654 46.7006 7.81973 46.9205C7.92192 46.979 8.02411 47.0374 8.12941 47.0976C9.31137 47.7746 10.4819 48.4706 11.6523 49.1672C12.0039 49.3765 12.3557 49.5855 12.7075 49.7944C13.8169 50.4537 14.9249 51.1153 16.0311 51.7799C17.2654 52.5214 18.5032 53.2569 19.7419 53.9911C21.3995 54.9738 23.0567 55.9571 24.7079 56.9506C26.2229 57.8622 27.7432 58.7647 29.2639 59.6667C30.9169 60.6472 32.5684 61.6297 34.2151 62.6206C35.8505 63.6034 37.4922 64.5755 39.1335 65.5484C43.4189 68.0893 43.4189 68.0893 44.2949 68.6551C44.6763 68.9186 44.6763 68.9186 45.1055 68.7631C45.2557 68.6816 45.4059 68.6001 45.5607 68.516C45.7344 68.4255 45.9081 68.3349 46.0871 68.2416C46.2954 68.1258 46.5032 68.0091 46.7106 67.8918C46.8294 67.8248 46.9482 67.7578 47.0706 67.6888C48.3938 66.9344 49.6916 66.1379 50.9913 65.3441C52.5883 64.3689 54.1951 63.4125 55.8118 62.4705C57.487 61.4941 59.1512 60.5021 60.806 59.4915C62.472 58.4742 64.1472 57.4746 65.833 56.4906C67.5705 55.4764 69.3011 54.4517 71.0247 53.4139C72.7878 52.353 74.5572 51.3029 76.3274 50.2538C78.6055 48.9034 80.8763 47.5416 83.1373 46.1628C83.3177 46.0529 83.4981 45.943 83.6839 45.8298C84.1187 45.5648 84.5535 45.2998 84.9882 45.0347C84.767 44.3709 84.5727 44.3222 83.9718 43.9874C83.7918 43.8857 83.6118 43.784 83.4263 43.6792C83.2298 43.5699 83.0332 43.4607 82.8307 43.3481C82.416 43.1141 82.0016 42.8797 81.5876 42.6444C81.4799 42.5833 81.3722 42.5222 81.2612 42.4593C80.4629 42.0041 79.6761 41.5323 78.8934 41.0509C78.727 40.9487 78.727 40.9487 78.5573 40.8444C78.1221 40.5767 77.6872 40.3086 77.2538 40.038C76.9529 39.8502 76.651 39.664 76.3491 39.4779C76.0911 39.3172 76.0911 39.3172 75.828 39.1532C75.3361 38.894 75.0301 38.7409 74.4742 38.7263C74.0452 38.9202 73.6808 39.1157 73.2852 39.3636C73.1716 39.432 73.058 39.5004 72.9409 39.5709C72.5707 39.7944 72.2028 40.0215 71.8348 40.2487C71.5779 40.4046 71.3209 40.5604 71.0637 40.7158C70.5564 41.023 70.05 41.3314 69.5443 41.6412C68.7376 42.1354 67.9264 42.6217 67.1144 43.1072C66.8431 43.2703 66.5718 43.4334 66.3005 43.5966C65.0741 44.3324 63.8433 45.0609 62.6131 45.7904C60.7526 46.8938 58.8951 48.0018 57.0415 49.1166C56.0288 49.7252 55.0143 50.3307 53.9979 50.9331C53.8792 51.0035 53.7605 51.0739 53.6382 51.1464C53.0358 51.5035 52.4331 51.8602 51.8301 52.2165C50.7322 52.8662 49.6389 53.5211 48.5568 54.1969C48.373 54.3111 48.1893 54.4254 48 54.5432C47.6627 54.7539 47.3265 54.9663 46.9915 55.1809C45.4797 56.1242 45.4797 56.1242 44.5093 56.0745C43.1714 55.592 41.9536 54.7319 40.7489 53.9897C40.2053 53.6549 39.6603 53.3226 39.1154 52.9901C39.0064 52.9235 38.8975 52.8569 38.7853 52.7884C37.8507 52.2179 36.9104 51.6574 35.9666 51.1022C35.816 51.0135 35.6653 50.9248 35.5101 50.8334C35.187 50.6433 34.864 50.4531 34.5409 50.263C33.4341 49.6104 32.3292 48.9544 31.2244 48.2985C31.1037 48.2268 30.983 48.1552 30.8587 48.0814C29.1283 47.054 27.4011 46.0215 25.6765 44.9843C24.6529 44.3692 23.6275 43.7572 22.6003 43.1482C22.4792 43.0764 22.3581 43.0046 22.2333 42.9306C21.7431 42.6401 21.253 42.3496 20.7626 42.0595C19.2063 41.1385 17.6539 40.2126 16.1276 39.2423C15.0941 38.5964 14.7372 38.6768 13.7106 39.2856ZM14.8948 54.6726C14.5708 54.81 14.5708 54.81 14.2144 55.0367C13.9982 55.1662 13.9982 55.1662 13.7776 55.2983C13.6186 55.3954 13.4596 55.4925 13.2958 55.5926C12.9488 55.8014 12.6017 56.0102 12.2546 56.2189C12.0631 56.3346 11.8715 56.4504 11.6741 56.5696C10.9746 56.9909 10.271 57.4051 9.56727 57.8193C9.18714 58.0433 8.80703 58.2675 8.42694 58.4916C8.17647 58.6392 7.92591 58.7866 7.67524 58.9339C7.31939 59.1431 6.96406 59.3531 6.60884 59.5634C6.50292 59.6254 6.39701 59.6874 6.28789 59.7512C5.66939 60.1186 5.10712 60.5189 4.556 60.981C7.44261 62.742 10.3379 64.4863 13.2496 66.2057C14.4223 66.8983 15.5936 67.5935 16.7647 68.2888C17.1155 68.4971 17.4663 68.7052 17.8171 68.9133C18.9166 69.5659 20.0148 70.2205 21.1108 70.879C22.3458 71.621 23.5843 72.3569 24.8237 73.0916C26.4813 74.0743 28.1385 75.0575 29.7896 76.0511C31.3046 76.9627 32.825 77.8652 34.3457 78.7672C35.8986 79.6886 37.4514 80.6101 39.0004 81.5381C39.1335 81.6174 39.2667 81.6967 39.4039 81.7784C40.1877 82.2471 40.9616 82.7288 41.7315 83.2199C41.9148 83.3354 42.0981 83.4509 42.287 83.5698C42.6441 83.7951 42.9996 84.023 43.3532 84.2537C43.514 84.3546 43.6748 84.4555 43.8405 84.5595C43.9825 84.6507 44.1244 84.742 44.2707 84.836C44.6859 85.034 44.6859 85.034 45.1296 84.8655C45.5225 84.6577 45.9108 84.45 46.2924 84.222C46.4346 84.1375 46.5769 84.0531 46.7234 83.966C46.9556 83.8268 46.9556 83.8268 47.1925 83.6847C47.3577 83.5863 47.523 83.488 47.6932 83.3866C48.0627 83.1666 48.4321 82.9464 48.8014 82.7259C49.4647 82.33 50.1292 81.936 50.7937 81.5422C52.9232 80.2799 55.0516 79.016 57.1727 77.7397C58.6794 76.8342 60.1919 75.9386 61.7037 75.0419C63.2326 74.1349 64.7597 73.2252 66.2829 72.3087C67.9182 71.3258 69.56 70.3538 71.2013 69.3809C72.3234 68.7156 73.4444 68.0484 74.5625 67.3763C75.4498 66.843 76.3389 66.3131 77.2301 65.7862C79.8921 64.2119 82.5443 62.6261 85.1635 60.981C84.5525 60.4711 83.9326 60.0507 83.2441 59.6524C83.1443 59.5943 83.0445 59.5362 82.9417 59.4764C82.7276 59.3519 82.5133 59.2277 82.2989 59.1038C81.7308 58.7754 81.164 58.4448 80.5971 58.1143C80.4817 58.0471 80.3663 57.9799 80.2475 57.9106C79.0582 57.2171 77.8771 56.5103 76.6975 55.8007C76.414 55.6301 76.414 55.6301 76.1247 55.4561C75.6913 55.1952 75.2579 54.934 74.8247 54.6726C72.7046 55.8701 70.6104 57.1102 68.5163 58.3525C68.2991 58.4812 68.0819 58.6099 67.8647 58.7386C65.3047 60.2557 62.747 61.7764 60.1968 63.3098C58.5694 64.2875 56.9369 65.2564 55.3039 66.2248C54.0268 66.9822 52.75 67.7399 51.4776 68.5051C51.2027 68.6704 50.9277 68.8352 50.6523 68.9996C49.8957 69.4517 49.1442 69.9109 48.3959 70.3765C48.0496 70.5888 47.7032 70.801 47.3568 71.0131C47.1981 71.1137 47.0394 71.2143 46.8759 71.318C45.4307 72.1959 45.4307 72.1959 44.5207 72.1182C43.7107 71.9001 43.025 71.4421 42.3189 71.0022C41.9456 70.777 41.5723 70.5518 41.199 70.3266C40.9971 70.2033 40.7953 70.08 40.5936 69.9567C39.9172 69.5442 39.2361 69.1401 38.5541 68.7371C38.4354 68.667 38.3167 68.5968 38.1944 68.5246C37.953 68.3819 37.7115 68.2391 37.47 68.0964C35.7073 67.0534 33.9493 66.0024 32.1943 64.9465C30.8301 64.1266 29.461 63.3152 28.0921 62.5033C26.4065 61.5037 24.7226 60.5014 23.0432 59.4915C21.2976 58.4421 19.5481 57.3994 17.7971 56.3592C17.6717 56.2847 17.5464 56.2102 17.4172 56.1334C17.0622 55.9224 16.7072 55.7116 16.3521 55.5008C16.2452 55.4373 16.1382 55.3737 16.0281 55.3082C15.6543 55.0866 15.2836 54.867 14.8948 54.6726Z" fill="black"/>
</g>
<defs>
<clipPath id="clip0_444_899">
<rect width="89.7196" height="89.7196" fill="white"/>
</clipPath>
</defs>
</svg>
